HIERARCHY
ROOT Hips
{
	OFFSET 0.00000 0.00000 0.00000
	CHANNELS 6 Xposition Yposition Zposition Zrotation Yrotation Xrotation 
	JOINT LHipJoint
	{
		OFFSET 0 0 0
		CHANNELS 3 Zrotation Yrotation Xrotation
		JOINT LeftHip
		{
			OFFSET 1.49846 -1.74315 1.08250
			CHANNELS 3 Zrotation Yrotation Xrotation
			JOINT LeftKnee
			{
				OFFSET 2.40966 -6.62050 0.00000
				CHANNELS 3 Zrotation Yrotation Xrotation
				JOINT LeftAnkle
				{
					OFFSET 2.68066 -7.36505 0.00000
					CHANNELS 3 Zrotation Yrotation Xrotation
					JOINT LeftToe
					{
						OFFSET 0.14291 -0.39265 2.35870
						CHANNELS 3 Zrotation Yrotation Xrotation
						End Site
						{
							OFFSET 0.00000 -0.00000 1.20470
						}
					}
				}
			}
		}
	}
	JOINT RHipJoint
	{
		OFFSET 0 0 0
		CHANNELS 3 Zrotation Yrotation Xrotation
		JOINT RightHip
		{
			OFFSET -1.46318 -1.74316 1.08250
			CHANNELS 3 Zrotation Yrotation Xrotation
			JOINT RightKnee
			{
				OFFSET -2.39759 -6.58734 0.00000
				CHANNELS 3 Zrotation Yrotation Xrotation
				JOINT RightAnkle
				{
					OFFSET -2.63570 -7.24154 0.00000
					CHANNELS 3 Zrotation Yrotation Xrotation
					JOINT RightToe
					{
						OFFSET -0.17578 -0.48294 2.47180
						CHANNELS 3 Zrotation Yrotation Xrotation
						End Site
						{
							OFFSET -0.00000 -0.00000 1.26600
						}
					}
				}
			}
		}
	}
	JOINT lowerback
	{
		OFFSET 0 0 0
		CHANNELS 3 Zrotation Yrotation Xrotation
		JOINT Chest
		{
			OFFSET 0.00843 2.19877 -0.20423
			CHANNELS 3 Zrotation Yrotation Xrotation
			JOINT Chest2
			{
				OFFSET -0.03080 2.21436 -0.05138
				CHANNELS 3 Zrotation Yrotation Xrotation
				JOINT lowerneck
				{
					OFFSET 0 0 0
					CHANNELS 3 Zrotation Yrotation Xrotation
					JOINT Neck
					{
						OFFSET -0.04063 1.58841 0.30440
						CHANNELS 3 Zrotation Yrotation Xrotation
						JOINT Head
						{
							OFFSET 0.09277 1.59484 -0.39337
							CHANNELS 3 Zrotation Yrotation Xrotation
							End Site
							{
								OFFSET 0.03488 1.66530 -0.17040
							}
						}
					}
				}
				JOINT LeftCollar
				{
					OFFSET 0 0 0
					CHANNELS 3 Zrotation Yrotation Xrotation
					JOINT LeftShoulder
					{
						OFFSET 3.03849 1.31522 0.02556
CHANNELS 3 Zrotation Xrotation Yrotation
						JOINT LeftElbow
						{
OFFSET 0 -5.255370 0.000000
CHANNELS 3 Zrotation Xrotation Yrotation
							JOINT LeftWrist
							{
OFFSET 0 -3.388550 -0.000000
CHANNELS 3 Zrotation Xrotation Yrotation
								JOINT lhand
								{
									OFFSET 0 0 0
CHANNELS 3 Zrotation Xrotation Yrotation
									JOINT LFingers
									{
OFFSET 0 -0.614520 0.000000
CHANNELS 3 Zrotation Xrotation Yrotation
										End Site
										{
OFFSET 0 -0.495440 0.000000
										}
									}
								}
								JOINT LThumb
								{
OFFSET 0 0.000000 0.000000
CHANNELS 3 Zrotation Xrotation Yrotation
									End Site
									{
OFFSET 0 -0.503000 0.503000
									}
								}
							}
						}
					}
				}
				JOINT RightCollar
				{
					OFFSET 0 0 0
					CHANNELS 3 Zrotation Yrotation Xrotation
					JOINT RightShoulder
					{
						OFFSET -3.06926 1.12091 -0.13185
CHANNELS 3 Zrotation Xrotation Yrotation
						JOINT RightElbow
						{
OFFSET 0 -5.381830 0.000000
CHANNELS 3 Zrotation Xrotation Yrotation
							JOINT RightWrist
							{
OFFSET 0 -3.169880 0.000000
CHANNELS 3 Zrotation Xrotation Yrotation
								JOINT rhand
								{
									OFFSET 0 0 0
CHANNELS 3 Zrotation Xrotation Yrotation
									JOINT RFingers
									{
OFFSET 0 -0.637680 0.000000
CHANNELS 3 Zrotation Xrotation Yrotation
										End Site
										{
OFFSET 0 -0.514110 0.000000
										}
									}
								}
								JOINT RThumb
								{
OFFSET 0 0.000000 0.000000
CHANNELS 3 Zrotation Xrotation Yrotation
									End Site
									{
OFFSET 0 -0.521960 0.521960
									}
								}
							}
						}
					}
				}
			}
		}
	}
}
MOTION
Frames: 11
Frame Time: 0.008333333333333333
4.494239 12.850942 8.312149 -1.199341 -0.721634 63.510243 0.000000 0.000000 0.000000 23.223831 10.417302 -11.080354 32.007478 16.113325 127.464931 0.031107 -1.076399 3.944740 0.471556 4.400890 12.207909 0.000000 0.000000 0.000000 -32.806956 -6.609243 -5.578578 -32.759232 -15.529409 130.224007 0.093456 6.493388 -1.491541 -0.293380 3.481600 -9.622682 1.122877 -1.036897 5.195403 -1.769985 -1.533653 -10.068709 -2.314192 -0.990586 -14.020013 -7.172442 -5.601980 -29.314007 8.516218 -7.909265 30.268580 3.163332 -2.810343 16.494006 0.000000 0.000000 0.000000 86.939320 -77.079898 20.014929 65.664495 -57.601133 39.099380 37.866945 -24.569335 -21.381558 0.000000 0.000000 0.000000 -7.125000 0.000000 0.000000 10.167310 56.069477 -2.780779 0.000000 0.000000 0.000000 -30.841772 -83.080684 23.955995 -74.331950 -59.011839 -46.479954 -40.060113 -63.610756 3.929202 0.000000 0.000000 0.000000 7.125000 0.000000 0.000000 -11.115613 34.930980 -2.792715
4.504975 12.772001 8.519771 -1.368933 -0.695540 67.063757 0.000000 0.000000 0.000000 19.235604 6.245263 -9.245746 27.564536 18.561661 112.644797 -0.161786 7.089503 -2.367316 1.026815 6.443731 18.078120 0.000000 0.000000 0.000000 -25.908079 -6.718510 -4.251387 -27.166225 -18.712629 111.400296 -0.146999 -2.272542 -8.467951 -0.095974 1.994597 -5.490761 -0.126928 0.618453 4.129144 -2.311495 0.568682 -10.982306 -2.583453 0.122157 -14.327739 -6.515890 -6.218559 -22.232456 6.470650 -8.948174 33.222990 2.096601 -3.580949 16.254691 0.000000 0.000000 0.000000 160.667514 -72.618256 85.253279 29.423324 -40.355607 11.048211 33.348248 -21.447612 -24.021056 0.000000 0.000000 0.000000 -7.125000 0.000000 0.000000 4.609173 58.000778 -1.467598 0.000000 0.000000 0.000000 -141.697071 -75.841272 -83.481989 -31.547666 -42.133383 -12.453872 -35.786025 -62.588757 7.768096 0.000000 0.000000 0.000000 7.125000 0.000000 0.000000 -7.808077 39.409080 -1.086059
4.500491 12.626263 8.648244 -1.743108 -0.475324 71.610680 0.000000 0.000000 0.000000 14.479274 3.736200 -7.007050 18.361949 19.930660 85.204747 -0.820068 16.113650 -9.499183 2.167471 9.205985 26.442356 0.000000 0.000000 0.000000 -18.694971 -5.298999 -2.818843 -16.920882 -19.765018 80.961838 0.506940 -13.183514 -9.427033 -0.016379 -0.814817 2.239526 -0.329162 0.286377 6.602866 -1.578951 0.136809 -10.835881 -1.617541 -0.022891 -15.765178 -9.693281 -6.254676 -20.373658 8.698009 -8.671997 32.879952 3.704460 -3.613076 15.975524 0.000000 0.000000 0.000000 170.466505 -58.497871 87.938549 14.831713 -23.908936 3.158809 24.284229 -16.993677 -27.351890 0.000000 0.000000 0.000000 -7.125000 0.000000 0.000000 -6.908476 59.421608 2.441322 0.000000 0.000000 0.000000 -155.741519 -59.023882 -75.453017 -17.077479 -26.959527 -4.122519 -29.496233 -62.009663 16.132549 0.000000 0.000000 0.000000 7.125000 0.000000 0.000000 -1.706962 48.354534 0.139371
4.466023 12.414712 8.697600 -2.364920 0.014456 79.227456 0.000000 0.000000 0.000000 11.583750 -0.311148 -5.710651 7.910041 16.038255 52.213983 -1.803817 22.958475 -8.774747 2.449354 9.744639 28.154099 0.000000 0.000000 0.000000 -11.807348 3.531749 1.548906 -5.281329 -13.668259 41.973114 3.073941 -29.279799 -13.871382 -0.492689 -4.499937 12.487674 -0.509038 0.033897 5.177981 -1.156046 -0.155586 -9.831836 -0.959339 -0.100111 -13.628237 -10.639785 -5.545345 -14.688710 10.022535 -7.663425 25.263590 4.398577 -3.289479 11.464134 0.000000 0.000000 0.000000 166.650099 -49.157230 86.002779 10.321176 -17.240338 1.568768 14.826914 6.879543 -28.273600 0.000000 0.000000 0.000000 -7.125000 0.000000 0.000000 -17.656531 58.188198 5.812753 0.000000 0.000000 0.000000 -154.472995 -45.130552 -52.115681 -13.066473 -21.384485 -2.477515 -22.053723 -55.134481 19.603806 0.000000 0.000000 0.000000 7.125000 0.000000 0.000000 6.336339 50.893095 -0.923206
4.439035 12.200943 8.726639 -2.378469 0.219051 86.402659 0.000000 0.000000 0.000000 9.881397 -10.674693 -1.540233 1.625011 8.017138 22.777062 -1.989408 26.319039 1.638027 1.651365 8.097688 23.011841 0.000000 0.000000 0.000000 -9.344301 19.018757 13.056550 -0.050570 -0.907947 2.501083 5.722643 -38.006195 -14.902063 -0.529366 -4.657554 12.935184 -0.730068 -0.679444 3.557521 -1.195235 -1.120787 -7.958582 -0.726240 -0.555087 -10.467742 -13.403049 -4.273270 -5.802454 15.319819 -6.095139 10.285282 6.680813 -2.711203 4.898337 0.000000 0.000000 0.000000 153.406344 -39.131419 65.529703 10.785276 -17.958297 1.709199 9.051535 17.062137 -26.527031 0.000000 0.000000 0.000000 -7.125000 0.000000 0.000000 -22.376131 55.359980 5.904304 0.000000 0.000000 0.000000 -148.213873 -34.160584 -30.684111 -13.386431 -21.850456 -2.595552 -14.517669 -44.639939 20.073543 0.000000 0.000000 0.000000 7.125000 0.000000 0.000000 13.814748 50.148306 -1.783300
4.455088 12.072454 8.904343 -1.832093 0.450405 92.035636 0.000000 0.000000 0.000000 9.082214 -18.677692 -4.450160 0.600473 4.960234 13.795264 -2.221636 26.902696 -0.304653 1.070634 6.577672 18.470154 0.000000 0.000000 0.000000 -7.507848 38.226355 8.585244 -0.088003 -1.879031 5.172087 -0.072089 -29.514166 -41.549300 -1.713956 -8.242836 23.454172 0.020645 -1.277201 2.504843 -1.514473 -1.877764 -6.848435 -1.418823 -1.001600 -8.652240 -14.555110 -3.791361 -2.334135 17.345340 -5.115816 2.118233 7.608916 -2.439533 1.852370 0.000000 0.000000 0.000000 142.795753 -31.859480 44.165058 12.487050 -20.530892 2.270187 4.516128 7.639549 -25.446928 0.000000 0.000000 0.000000 -7.125000 0.000000 0.000000 -26.072186 53.533789 5.778444 0.000000 0.000000 0.000000 -140.566219 -26.048154 -11.762506 -16.813125 -26.610619 -4.003301 -14.600724 -55.579957 19.822779 0.000000 0.000000 0.000000 7.125000 0.000000 0.000000 13.639686 49.913326 -1.679750
4.441130 12.026850 9.159164 -1.967478 0.538144 96.401591 0.000000 0.000000 0.000000 6.780720 -17.058992 -14.934397 1.429754 7.558524 21.381941 -1.640521 22.660239 -2.582448 0.873334 5.957583 16.661533 0.000000 0.000000 0.000000 -8.216947 34.985222 -8.153500 -0.969351 -6.265006 17.556307 -0.111568 -26.799799 -38.050398 -0.941176 -6.163510 17.264390 -0.120083 -1.298412 -0.423091 -1.552224 -1.885579 -6.688060 -1.445494 -1.000125 -6.764546 -14.531736 -3.716287 -2.726292 18.063089 -4.764646 -0.095289 7.857348 -2.275878 1.251521 0.000000 0.000000 0.000000 133.011711 -30.060356 26.893767 15.091792 -24.272838 3.264164 2.785806 1.949749 -22.109778 0.000000 0.000000 0.000000 -7.125000 0.000000 0.000000 -25.732954 50.252673 3.537479 0.000000 0.000000 0.000000 -130.450910 -27.696074 -9.417235 -16.693756 -26.452154 -3.950066 -7.337877 -38.441139 14.985789 0.000000 0.000000 0.000000 7.125000 0.000000 0.000000 18.539844 44.258325 0.353091
4.432197 12.006828 9.347450 -2.001891 0.903917 99.124603 0.000000 0.000000 0.000000 3.591084 -14.437691 -22.287569 2.536506 9.903165 28.664472 -0.676602 16.415866 2.414289 0.529528 4.662759 12.949167 0.000000 0.000000 0.000000 -4.598481 20.478760 -20.800591 -2.048501 -8.964832 25.686500 1.558565 -21.878735 -13.125252 -0.001154 -0.126491 0.347671 0.446729 -1.295681 -2.605623 -1.497655 -1.861741 -7.053821 -1.754889 -1.023610 -5.918475 -14.045329 -3.588004 -4.130078 18.298172 -4.389367 -0.726358 7.847008 -2.036199 1.244701 0.000000 0.000000 0.000000 122.582993 -28.430654 11.803499 19.899193 -30.518346 5.481198 3.438932 -3.017723 -18.732509 0.000000 0.000000 0.000000 -7.125000 0.000000 0.000000 -23.474656 47.280202 1.396441 0.000000 0.000000 0.000000 -120.334184 -27.906804 -0.959206 -20.360742 -31.072513 -5.717294 -5.548529 -37.454512 11.571058 0.000000 0.000000 0.000000 7.125000 0.000000 0.000000 18.988789 40.833385 2.035071
4.407071 12.025576 9.346692 -2.000567 0.672658 100.427955 0.000000 0.000000 0.000000 -0.047395 -13.468516 -25.079762 3.059774 10.791127 31.578784 -0.443455 13.712718 2.601925 0.373294 3.924242 10.863742 0.000000 0.000000 0.000000 -1.283992 17.452292 -24.422688 -2.793393 -10.352826 30.126995 1.214176 -19.872415 -13.617446 -0.001726 0.268136 -0.736743 0.120170 -1.349924 -3.596008 -1.501459 -1.938212 -7.276536 -1.596971 -1.047009 -5.583071 -13.249428 -3.487136 -4.378489 17.915527 -4.137546 -1.825748 7.594835 -1.925558 0.903925 0.000000 0.000000 0.000000 112.014230 -24.164751 -0.667305 26.668023 -37.860099 9.294962 4.474972 -6.964612 -15.304382 0.000000 0.000000 0.000000 -7.125000 0.000000 0.000000 -21.157113 44.237393 -0.417804 0.000000 0.000000 0.000000 -111.841976 -25.625008 9.424271 -25.601244 -36.811943 -8.647759 -4.155519 -35.944258 7.114780 0.000000 0.000000 0.000000 7.125000 0.000000 0.000000 18.924971 36.501469 4.139734
4.386154 12.054746 9.224572 -1.939211 0.559654 99.855931 0.000000 0.000000 0.000000 -3.168237 -14.634949 -24.465309 3.356748 11.251291 33.132166 -0.372614 12.302918 1.889014 0.207275 2.930410 8.085163 0.000000 0.000000 0.000000 1.639013 18.007608 -23.003277 -3.140387 -10.918850 32.006671 0.881282 -17.453469 -13.124475 -0.058101 1.549571 -4.262533 0.494766 -1.525122 -3.127124 -1.523360 -2.169162 -6.632246 -1.820172 -1.178455 -5.187671 -13.519602 -3.610635 -5.812794 18.141062 -4.096419 -2.308886 7.702885 -1.848997 1.015566 0.000000 0.000000 0.000000 102.064491 -19.243532 -8.520777 34.541026 -44.477990 14.491968 4.337669 -10.703224 -13.750239 0.000000 0.000000 0.000000 -7.125000 0.000000 0.000000 -20.720212 42.770016 -1.195712 0.000000 0.000000 0.000000 -104.315833 -23.568500 18.214843 -31.889242 -42.455560 -12.667114 -6.089631 -39.536908 5.910597 0.000000 0.000000 0.000000 7.125000 0.000000 0.000000 17.084341 35.467843 4.154384
4.367272 12.066552 9.055897 -1.690036 0.740283 98.328281 0.000000 0.000000 0.000000 -5.973964 -15.234418 -23.359196 3.671859 11.710408 34.715264 -0.201700 9.698102 2.405917 0.084439 1.873858 5.157252 0.000000 0.000000 0.000000 5.138550 16.858188 -21.250543 -3.583402 -11.584336 34.276959 0.495788 -13.188771 -9.804861 -0.216066 2.992134 -8.256804 0.926477 -1.582788 -1.887995 -1.389124 -2.224456 -5.936657 -1.894309 -1.214765 -5.169670 -13.568640 -3.837611 -7.376851 18.115776 -4.204176 -2.653254 7.681356 -1.840402 1.197921 0.000000 0.000000 0.000000 92.670534 -15.626896 -15.017858 43.695428 -50.109292 21.234055 5.777406 -12.446026 -12.605967 0.000000 0.000000 0.000000 -7.125000 0.000000 0.000000 -19.111291 41.835297 -1.555066 0.000000 0.000000 0.000000 -97.179412 -20.624725 26.648133 -40.979088 -48.634228 -19.172487 -5.312650 -36.173025 1.930111 0.000000 0.000000 0.000000 7.125000 0.000000 0.000000 16.900848 31.608481 5.757473
